REM DIRINDEX 1\2,1\4,1\3\5,1\3\6,1\3\7
REM DIRNAME cjc082,folder01,folder02,folder03,folder04,folder05,folder06
TITLE ""
FILE "CD1Track07.mp3" MP3
  TRACK 01 AUDIO
    TITLE "0:"
    INDEX 01 00:00:00
  TRACK 02 AUDIO
    TITLE "5:cjc082_0080"
    INDEX 01 00:00:31
  TRACK 03 AUDIO
    TITLE "0:"
    INDEX 01 00:02:06
  TRACK 04 AUDIO
    TITLE "6:cjc082_0081"
    INDEX 01 00:02:51
  TRACK 05 AUDIO
    TITLE "0:"
    INDEX 01 00:05:34
  TRACK 06 AUDIO
    TITLE "5:cjc082_0082"
    INDEX 01 00:06:06
  TRACK 07 AUDIO
    TITLE "0:"
    INDEX 01 00:07:17
  TRACK 08 AUDIO
    TITLE "6:cjc082_0083"
    INDEX 01 00:07:64
  TRACK 09 AUDIO
    TITLE "0:"
    INDEX 01 00:09:38
  TRACK 10 AUDIO
    TITLE "5:cjc082_0084"
    INDEX 01 00:10:12
  TRACK 11 AUDIO
    TITLE "0:"
    INDEX 01 00:11:62
  TRACK 12 AUDIO
    TITLE "6:cjc082_0085"
    INDEX 01 00:12:28
  TRACK 13 AUDIO
    TITLE "0:"
    INDEX 01 00:13:53
  TRACK 14 AUDIO
    TITLE "5:cjc082_0086"
    INDEX 01 00:14:19
  TRACK 15 AUDIO
    TITLE "0:"
    INDEX 01 00:16:06
  TRACK 16 AUDIO
    TITLE "6:cjc082_0087"
    INDEX 01 00:16:51
  TRACK 17 AUDIO
    TITLE "0:"
    INDEX 01 00:19:34
  TRACK 18 AUDIO
    TITLE "5:cjc082_0088"
    INDEX 01 00:20:08
  TRACK 19 AUDIO
    TITLE "0:"
    INDEX 01 00:21:49
  TRACK 20 AUDIO
    TITLE "6:cjc082_0089"
    INDEX 01 00:22:21
  TRACK 21 AUDIO
    TITLE "0:"
    INDEX 01 00:23:53
  TRACK 22 AUDIO
    TITLE "5:cjc082_0090"
    INDEX 01 00:24:25
  TRACK 23 AUDIO
    TITLE "0:"
    INDEX 01 00:26:26
  TRACK 24 AUDIO
    TITLE "6:cjc082_0091"
    INDEX 01 00:26:71
  TRACK 25 AUDIO
    TITLE "0:"
    INDEX 01 00:28:41
  TRACK 26 AUDIO
    TITLE "5:cjc082_0092"
    INDEX 01 00:29:11
  TRACK 27 AUDIO
    TITLE "0:"
    INDEX 01 00:30:63
  TRACK 28 AUDIO
    TITLE "6:cjc082_0093"
    INDEX 01 00:31:41
  TRACK 29 AUDIO
    TITLE "0:"
    INDEX 01 00:33:32
  TRACK 30 AUDIO
    TITLE "5:cjc082_0094"
    INDEX 01 00:34:04
  TRACK 31 AUDIO
    TITLE "0:"
    INDEX 01 00:35:21
  TRACK 32 AUDIO
    TITLE "6:cjc082_0095"
    INDEX 01 00:35:68
  TRACK 33 AUDIO
    TITLE "0:"
    INDEX 01 00:37:16
  TRACK 34 AUDIO
    TITLE "5:cjc082_0096"
    INDEX 01 00:37:63
  TRACK 35 AUDIO
    TITLE "0:"
    INDEX 01 00:39:33
  TRACK 36 AUDIO
    TITLE "6:cjc082_0097"
    INDEX 01 00:40:09
  TRACK 37 AUDIO
    TITLE "0:"
    INDEX 01 00:42:25
  TRACK 38 AUDIO
    TITLE "5:cjc082_0098"
    INDEX 01 00:42:74
  TRACK 39 AUDIO
    TITLE "0:"
    INDEX 01 00:44:16
  TRACK 40 AUDIO
    TITLE "6:cjc082_0099"
    INDEX 01 00:44:69
  TRACK 41 AUDIO
    TITLE "0:"
    INDEX 01 00:46:62
  TRACK 42 AUDIO
    TITLE "5:cjc082_0100"
    INDEX 01 00:47:36
  TRACK 43 AUDIO
    TITLE "0:"
    INDEX 01 00:48:71
  TRACK 44 AUDIO
    TITLE "6:cjc082_0101"
    INDEX 01 00:49:49
  TRACK 45 AUDIO
    TITLE "0:"
    INDEX 01 00:50:66
  TRACK 46 AUDIO
    TITLE "5:cjc082_0102"
    INDEX 01 00:51:44
  TRACK 47 AUDIO
    TITLE "0:"
    INDEX 01 00:52:71
  TRACK 48 AUDIO
    TITLE "6:cjc082_0103"
    INDEX 01 00:53:49
  TRACK 49 AUDIO
    TITLE "0:"
    INDEX 01 00:54:62
  TRACK 50 AUDIO
    TITLE "5:cjc082_0104"
    INDEX 01 00:55:36
  TRACK 51 AUDIO
    TITLE "0:"
    INDEX 01 00:56:47
  TRACK 52 AUDIO
    TITLE "6:cjc082_0105"
    INDEX 01 00:57:15
  TRACK 53 AUDIO
    TITLE "0:"
    INDEX 01 00:58:26
  TRACK 54 AUDIO
    TITLE "5:cjc082_0106"
    INDEX 01 00:58:73
  TRACK 55 AUDIO
    TITLE "0:"
    INDEX 01 01:00:15
  TRACK 56 AUDIO
    TITLE "6:cjc082_0107"
    INDEX 01 01:00:62
  TRACK 57 AUDIO
    TITLE "0:"
    INDEX 01 01:03:00
  TRACK 58 AUDIO
    TITLE "7:cjc082_0108"
    INDEX 01 01:04:39
  TRACK 59 AUDIO
    TITLE "0:"
    INDEX 01 01:15:25
